<svg xmlns="http://www.w3.org/2000/svg" xmlns:xlink="http://www.w3.org/1999/xlink" width="1920" height="1080" viewBox="0 0 1920 1080">
  <defs>
    <radialGradient id="radial-gradient" cx="0.188" cy="0.194" r="0.279" gradientTransform="matrix(1, -0.001, 0.001, 1.808, 0, -0.157)" gradientUnits="objectBoundingBox">
      <stop offset="0" stop-color="#080808"/>
      <stop offset="1"/>
    </radialGradient>
    <filter id="error" x="707" y="356" width="178" height="97" filterUnits="userSpaceOnUse">
      <feOffset dx="2" dy="5" input="SourceAlpha"/>
      <feGaussianBlur stdDeviation="5" result="blur"/>
      <feFlood/>
      <feComposite operator="in" in2="blur"/>
      <feComposite in="SourceGraphic"/>
    </filter>
    <filter id="_404" x="1068" y="637" width="238" height="146" filterUnits="userSpaceOnUse">
      <feOffset dx="2" dy="5" input="SourceAlpha"/>
      <feGaussianBlur stdDeviation="5" result="blur-2"/>
      <feFlood/>
      <feComposite operator="in" in2="blur-2"/>
      <feComposite in="SourceGraphic"/>
    </filter>
    <filter id="volume_up-24px" x="630.4" y="399.9" width="52.451" height="51.101" filterUnits="userSpaceOnUse">
      <feOffset dx="2" dy="5" input="SourceAlpha"/>
      <feGaussianBlur stdDeviation="5" result="blur-3"/>
      <feFlood/>
      <feComposite operator="in" in2="blur-3"/>
      <feComposite in="SourceGraphic"/>
    </filter>
    <filter id="Ellipse_89" x="592" y="360" width="130" height="130" filterUnits="userSpaceOnUse">
      <feOffset dx="2" dy="5" input="SourceAlpha"/>
      <feGaussianBlur stdDeviation="10" result="blur-4"/>
      <feFlood/>
      <feComposite operator="in" in2="blur-4"/>
      <feComposite in="SourceGraphic"/>
    </filter>
    <filter id="error-2" x="707" y="1218" width="178" height="97" filterUnits="userSpaceOnUse">
      <feOffset dx="2" dy="5" input="SourceAlpha"/>
      <feGaussianBlur stdDeviation="5" result="blur-5"/>
      <feFlood/>
      <feComposite operator="in" in2="blur-5"/>
      <feComposite in="SourceGraphic"/>
    </filter>
    <filter id="_404-2" x="1068" y="888" width="238" height="146" filterUnits="userSpaceOnUse">
      <feOffset dx="2" dy="5" input="SourceAlpha"/>
      <feGaussianBlur stdDeviation="5" result="blur-6"/>
      <feFlood/>
      <feComposite operator="in" in2="blur-6"/>
      <feComposite in="SourceGraphic"/>
    </filter>
    <filter id="volume_up-24px-2" x="630.4" y="1219.999" width="52.451" height="51.101" filterUnits="userSpaceOnUse">
      <feOffset dx="2" dy="5" input="SourceAlpha"/>
      <feGaussianBlur stdDeviation="5" result="blur-7"/>
      <feFlood/>
      <feComposite operator="in" in2="blur-7"/>
      <feComposite in="SourceGraphic"/>
    </filter>
    <filter id="Ellipse_91" x="592" y="1181" width="130" height="130" filterUnits="userSpaceOnUse">
      <feOffset dx="2" dy="5" input="SourceAlpha"/>
      <feGaussianBlur stdDeviation="10" result="blur-8"/>
      <feFlood/>
      <feComposite operator="in" in2="blur-8"/>
      <feComposite in="SourceGraphic"/>
    </filter>
    <clipPath id="clip-GitHub_Public_Profile">
      <rect width="1920" height="1080"/>
    </clipPath>
  </defs>
  <g id="GitHub_Public_Profile" data-name="GitHub Public Profile" clip-path="url(#clip-GitHub_Public_Profile)">
    <rect width="1920" height="1080" fill="url(#radial-gradient)"/>
    <rect id="Rectangle_62" data-name="Rectangle 62" width="756" height="444" rx="20" transform="translate(582 350)" fill="#080808"/>
    <g transform="matrix(1, 0, 0, 1, 0, 0)" filter="url(#error)">
      <text id="error-3" data-name="error" transform="translate(720 420)" fill="#fff" font-size="57" font-family="Raleway-ExtraBold, Raleway" font-weight="800" letter-spacing="0.05em"><tspan x="0" y="0">error</tspan></text>
    </g>
    <g transform="matrix(1, 0, 0, 1, 0, 0)" filter="url(#_404)">
      <text id="_404-3" data-name="404" transform="translate(1081 739)" fill="#0d0d0d" font-size="95" font-family="Montserrat-ExtraBold, Montserrat" font-weight="800" letter-spacing="0.05em"><tspan x="0" y="0">404</tspan></text>
    </g>
    <text id="_ɛrə_" data-name="/ˈɛrə/" transform="translate(720 456)" fill="#dcdcdc" font-size="21" font-family="Gilroy-Bold, Gilroy ☞" font-weight="700"><tspan x="0" y="0">/</tspan><tspan y="0" font-family="SegoeUI-Bold, Segoe UI">ˈɛ</tspan><tspan y="0">r</tspan><tspan y="0" font-family="SegoeUI-Bold, Segoe UI">ə</tspan><tspan y="0">/</tspan></text>
    <text id="noun" transform="translate(620 592)" fill="#414141" font-size="21" font-family="Raleway-BoldItalic, Raleway" font-weight="700" font-style="italic"><tspan x="0" y="0">noun</tspan></text>
    <text id="see_definitions_in:" data-name="see definitions in:" transform="translate(620 538)" fill="#414141" font-size="21" font-family="Raleway-Bold, Raleway" font-weight="700"><tspan x="0" y="0">see definitions in:</tspan></text>
    <text id="a_mistake." data-name="a mistake." transform="translate(655 617)" fill="#dcdcdc" font-size="21" font-family="Raleway-Bold, Raleway" font-weight="700"><tspan x="0" y="0">a mistake.</tspan></text>
    <text id="_the_state_or_condition_of_being_wrong_in_conduct_or_judgement." data-name="    the state or condition of being
wrong in conduct or judgement." transform="translate(655 700)" fill="#dcdcdc" font-size="21" font-family="Raleway-Bold, Raleway" font-weight="700"><tspan x="0" y="0" xml:space="preserve">    the state or condition of being</tspan><tspan x="0" y="25">wrong in conduct or judgement.</tspan></text>
    <text id="_spelling_errors_" data-name="&quot;spelling errors&quot;" transform="translate(655 642)" fill="#414141" font-size="15" font-family="Raleway-Bold, Raleway" font-weight="700"><tspan x="0" y="0">&quot;spelling errors&quot;</tspan></text>
    <text id="All" transform="translate(843 536)" fill="#dcdcdc" font-size="15" font-family="Gilroy-SemiBold, Gilroy ☞" font-weight="600" letter-spacing="0.019em"><tspan x="0" y="0">All</tspan></text>
    <g id="Rectangle_63" data-name="Rectangle 63" transform="translate(817 514)" fill="none" stroke="#dcdcdc" stroke-width="2">
      <rect width="70" height="34" rx="17" stroke="none"/>
      <rect x="1" y="1" width="68" height="32" rx="16" fill="none"/>
    </g>
    <text id="Other" transform="translate(1060.001 536)" fill="#dcdcdc" font-size="15" font-family="Gilroy-SemiBold, Gilroy ☞" font-weight="600" letter-spacing="0.019em"><tspan x="0" y="0">Other</tspan></text>
    <g id="Rectangle_65" data-name="Rectangle 65" transform="translate(1034.001 514)" fill="none" stroke="#dcdcdc" stroke-width="2">
      <rect width="92" height="34" rx="17" stroke="none"/>
      <rect x="1" y="1" width="90" height="32" rx="16" fill="none"/>
    </g>
    <text id="Statistics" transform="translate(926.999 536)" fill="#dcdcdc" font-size="15" font-family="Gilroy-SemiBold, Gilroy ☞" font-weight="600" letter-spacing="0.019em"><tspan x="0" y="0">Statistics</tspan></text>
    <g id="Rectangle_64" data-name="Rectangle 64" transform="translate(903.999 514)" fill="none" stroke="#dcdcdc" stroke-width="2">
      <rect width="111" height="34" rx="17" stroke="none"/>
      <rect x="1" y="1" width="109" height="32" rx="16" fill="none"/>
    </g>
    <circle id="Ellipse_88" data-name="Ellipse 88" cx="4" cy="4" r="4" transform="translate(655 690)" fill="#fff"/>
    <g transform="matrix(1, 0, 0, 1, 0, 0)" filter="url(#volume_up-24px)">
      <path id="volume_up-24px-3" data-name="volume_up-24px" d="M3,11.6v4.989a1.251,1.251,0,0,0,1.247,1.247H7.989l4.1,4.1a1.251,1.251,0,0,0,2.133-.886V7.12a1.251,1.251,0,0,0-2.133-.886l-4.1,4.116H4.247A1.251,1.251,0,0,0,3,11.6Zm16.838,2.494A5.613,5.613,0,0,0,16.72,9.066v10.04A5.58,5.58,0,0,0,19.838,14.092ZM16.72,4.675v.249a1.16,1.16,0,0,0,.748,1.06,8.732,8.732,0,0,1,0,16.214,1.142,1.142,0,0,0-.748,1.06v.249a1.124,1.124,0,0,0,1.509,1.06,11.211,11.211,0,0,0,0-20.954,1.119,1.119,0,0,0-1.509,1.06Z" transform="translate(640.4 406.36)" fill="#fff"/>
    </g>
    <g transform="matrix(1, 0, 0, 1, 0, 0)" filter="url(#Ellipse_89)">
      <g id="Ellipse_89-2" data-name="Ellipse 89" transform="translate(620 385)" fill="none" stroke="#222" stroke-width="2">
        <circle cx="35" cy="35" r="35" stroke="none"/>
        <circle cx="35" cy="35" r="34" fill="none"/>
      </g>
    </g>
    <g id="Group_109" data-name="Group 109" transform="translate(582 867)" opacity="0.71">
      <rect id="Rectangle_66" data-name="Rectangle 66" width="756" height="444" rx="20" fill="#080808"/>
      <g transform="matrix(1, 0, 0, 1, -582, -867)" filter="url(#error-2)">
        <text id="error-4" data-name="error" transform="matrix(1, 0, 0, -1, 720, 1241)" fill="#fff" font-size="57" font-family="Raleway-ExtraBold, Raleway" font-weight="800" letter-spacing="0.05em"><tspan x="0" y="0">error</tspan></text>
      </g>
      <g transform="matrix(1, 0, 0, 1, -582, -867)" filter="url(#_404-2)">
        <text id="_404-4" data-name="404" transform="matrix(1, 0, 0, -1, 1081, 922)" fill="#0d0d0d" font-size="95" font-family="Montserrat-ExtraBold, Montserrat" font-weight="800" letter-spacing="0.05em" opacity="0.5"><tspan x="0" y="0">404</tspan></text>
      </g>
      <text id="_ɛrə_2" data-name="/ˈɛrə/" transform="matrix(1, 0, 0, -1, 138, 338)" fill="#dcdcdc" font-size="21" font-family="Gilroy-Bold, Gilroy ☞" font-weight="700"><tspan x="0" y="0">/</tspan><tspan y="0" font-family="SegoeUI-Bold, Segoe UI">ˈɛ</tspan><tspan y="0">r</tspan><tspan y="0" font-family="SegoeUI-Bold, Segoe UI">ə</tspan><tspan y="0">/</tspan></text>
      <text id="noun-2" data-name="noun" transform="matrix(1, 0, 0, -1, 38, 202)" fill="#414141" font-size="21" font-family="Raleway-BoldItalic, Raleway" font-weight="700" font-style="italic" opacity="0.34"><tspan x="0" y="0">noun</tspan></text>
      <text id="see_definitions_in:-2" data-name="see definitions in:" transform="matrix(1, 0, 0, -1, 38, 256)" fill="#414141" font-size="21" font-family="Raleway-Bold, Raleway" font-weight="700"><tspan x="0" y="0">see definitions in:</tspan></text>
      <text id="a_mistake.-2" data-name="a mistake." transform="matrix(1, 0, 0, -1, 73, 177)" fill="#dcdcdc" font-size="21" font-family="Raleway-Bold, Raleway" font-weight="700" opacity="0.34"><tspan x="0" y="0">a mistake.</tspan></text>
      <text id="_the_state_or_condition_of_being_wrong_in_conduct_or_judgement.-2" data-name="    the state or condition of being
wrong in conduct or judgement." transform="matrix(1, 0, 0, -1, 73, 94)" fill="#dcdcdc" font-size="21" font-family="Raleway-Bold, Raleway" font-weight="700" opacity="0.34"><tspan x="0" y="0" xml:space="preserve">    the state or condition of being</tspan><tspan x="0" y="25">wrong in conduct or judgement.</tspan></text>
      <text id="_spelling_errors_2" data-name="&quot;spelling errors&quot;" transform="matrix(1, 0, 0, -1, 73, 152)" fill="#414141" font-size="15" font-family="Raleway-Bold, Raleway" font-weight="700" opacity="0.34"><tspan x="0" y="0">&quot;spelling errors&quot;</tspan></text>
      <text id="All-2" data-name="All" transform="matrix(1, 0, 0, -1, 261, 258)" fill="#dcdcdc" font-size="15" font-family="Gilroy-SemiBold, Gilroy ☞" font-weight="600" letter-spacing="0.019em"><tspan x="0" y="0">All</tspan></text>
      <g id="Rectangle_67" data-name="Rectangle 67" transform="translate(235 246)" fill="none" stroke="#dcdcdc" stroke-width="2">
        <rect width="70" height="34" rx="17" stroke="none"/>
        <rect x="1" y="1" width="68" height="32" rx="16" fill="none"/>
      </g>
      <text id="Other-2" data-name="Other" transform="matrix(1, 0, 0, -1, 478, 258)" fill="#dcdcdc" font-size="15" font-family="Gilroy-SemiBold, Gilroy ☞" font-weight="600" letter-spacing="0.019em"><tspan x="0" y="0">Other</tspan></text>
      <g id="Rectangle_68" data-name="Rectangle 68" transform="translate(452 246)" fill="none" stroke="#dcdcdc" stroke-width="2">
        <rect width="92" height="34" rx="17" stroke="none"/>
        <rect x="1" y="1" width="90" height="32" rx="16" fill="none"/>
      </g>
      <text id="Statistics-2" data-name="Statistics" transform="matrix(1, 0, 0, -1, 345, 258)" fill="#dcdcdc" font-size="15" font-family="Gilroy-SemiBold, Gilroy ☞" font-weight="600" letter-spacing="0.019em"><tspan x="0" y="0">Statistics</tspan></text>
      <g id="Rectangle_69" data-name="Rectangle 69" transform="translate(322 246)" fill="none" stroke="#dcdcdc" stroke-width="2">
        <rect width="111" height="34" rx="17" stroke="none"/>
        <rect x="1" y="1" width="109" height="32" rx="16" fill="none"/>
      </g>
      <circle id="Ellipse_90" data-name="Ellipse 90" cx="4" cy="4" r="4" transform="translate(73 96)" fill="#fff"/>
      <g transform="matrix(1, 0, 0, 1, -582, -867)" filter="url(#volume_up-24px-2)">
        <path id="volume_up-24px-4" data-name="volume_up-24px" d="M3,16.582V11.593a1.251,1.251,0,0,1,1.247-1.247H7.989l4.1-4.1a1.251,1.251,0,0,1,2.133.886V21.059a1.251,1.251,0,0,1-2.133.886l-4.1-4.116H4.247A1.251,1.251,0,0,1,3,16.582Zm16.838-2.494a5.613,5.613,0,0,1-3.118,5.026V9.073A5.58,5.58,0,0,1,19.838,14.087ZM16.72,23.5v-.249a1.16,1.16,0,0,1,.748-1.06,8.732,8.732,0,0,0,0-16.214,1.142,1.142,0,0,1-.748-1.06V4.671a1.124,1.124,0,0,1,1.509-1.06,11.211,11.211,0,0,1,0,20.954A1.119,1.119,0,0,1,16.72,23.5Z" transform="translate(640.4 1226.46)" fill="#fff"/>
      </g>
      <g transform="matrix(1, 0, 0, 1, -582, -867)" filter="url(#Ellipse_91)">
        <g id="Ellipse_91-2" data-name="Ellipse 91" transform="translate(620 1206)" fill="none" stroke="#222" stroke-width="2">
          <circle cx="35" cy="35" r="35" stroke="none"/>
          <circle cx="35" cy="35" r="34" fill="none"/>
        </g>
      </g>
    </g>
  </g>
</svg>
